<mxfile host="app.diagrams.net" modified="2020-09-25T10:07:22.346Z" agent="5.0 (Windows)" etag="p1rLFi5nqEMxXGn9zQ2O" version="13.7.5" type="github">
  <diagram id="uUWhvBt9SjjKLmyAbZoW" name="Page-1">
    <mxGraphModel dx="1342" dy="592" grid="1" gridSize="10" guides="1" tooltips="1" connect="1" arrows="1" fold="1" page="1" pageScale="1" pageWidth="850" pageHeight="1100" math="0" shadow="0">
      <root>
        <mxCell id="0" />
        <mxCell id="1" parent="0" />
        <mxCell id="LnT8cTqgNfaUhyzzywaj-1" value="" style="endArrow=none;dashed=1;html=1;" edge="1" parent="1">
          <mxGeometry width="50" height="50" relative="1" as="geometry">
            <mxPoint y="570" as="sourcePoint" />
            <mxPoint y="80" as="targetPoint" />
          </mxGeometry>
        </mxCell>
        <mxCell id="LnT8cTqgNfaUhyzzywaj-6" value="" style="endArrow=none;dashed=1;html=1;" edge="1" parent="1">
          <mxGeometry width="50" height="50" relative="1" as="geometry">
            <mxPoint x="840" y="570" as="sourcePoint" />
            <mxPoint x="840" y="80" as="targetPoint" />
          </mxGeometry>
        </mxCell>
        <mxCell id="LnT8cTqgNfaUhyzzywaj-7" value="" style="endArrow=none;html=1;" edge="1" parent="1">
          <mxGeometry width="50" height="50" relative="1" as="geometry">
            <mxPoint x="105" y="570" as="sourcePoint" />
            <mxPoint x="105" y="80" as="targetPoint" />
          </mxGeometry>
        </mxCell>
        <mxCell id="LnT8cTqgNfaUhyzzywaj-8" value="" style="endArrow=none;html=1;" edge="1" parent="1">
          <mxGeometry width="50" height="50" relative="1" as="geometry">
            <mxPoint y="80" as="sourcePoint" />
            <mxPoint x="840" y="80" as="targetPoint" />
          </mxGeometry>
        </mxCell>
        <mxCell id="LnT8cTqgNfaUhyzzywaj-9" value="" style="endArrow=none;html=1;" edge="1" parent="1">
          <mxGeometry width="50" height="50" relative="1" as="geometry">
            <mxPoint x="40" y="250" as="sourcePoint" />
            <mxPoint x="800" y="250" as="targetPoint" />
          </mxGeometry>
        </mxCell>
        <mxCell id="LnT8cTqgNfaUhyzzywaj-10" value="" style="endArrow=none;html=1;" edge="1" parent="1">
          <mxGeometry width="50" height="50" relative="1" as="geometry">
            <mxPoint x="40" y="470" as="sourcePoint" />
            <mxPoint x="800" y="470" as="targetPoint" />
          </mxGeometry>
        </mxCell>
        <mxCell id="LnT8cTqgNfaUhyzzywaj-11" value="" style="endArrow=none;html=1;" edge="1" parent="1">
          <mxGeometry width="50" height="50" relative="1" as="geometry">
            <mxPoint x="39" y="360.5" as="sourcePoint" />
            <mxPoint x="799" y="360.5" as="targetPoint" />
          </mxGeometry>
        </mxCell>
        <mxCell id="LnT8cTqgNfaUhyzzywaj-12" value="&lt;b&gt;&lt;font style=&quot;font-size: 14px&quot;&gt;VTC&lt;/font&gt;&lt;/b&gt;" style="rounded=0;whiteSpace=wrap;html=1;" vertex="1" parent="1">
          <mxGeometry x="30" y="136" width="70" height="30" as="geometry" />
        </mxCell>
        <mxCell id="LnT8cTqgNfaUhyzzywaj-15" value="&lt;b&gt;&lt;font style=&quot;font-size: 14px&quot;&gt;NODAL&lt;/font&gt;&lt;/b&gt;" style="rounded=0;whiteSpace=wrap;html=1;" vertex="1" parent="1">
          <mxGeometry x="20" y="287" width="70" height="30" as="geometry" />
        </mxCell>
        <mxCell id="LnT8cTqgNfaUhyzzywaj-17" value="&lt;b&gt;&lt;font style=&quot;font-size: 14px&quot;&gt;COUNCIL&lt;/font&gt;&lt;/b&gt;" style="rounded=0;whiteSpace=wrap;html=1;" vertex="1" parent="1">
          <mxGeometry x="20" y="404" width="70" height="30" as="geometry" />
        </mxCell>
        <mxCell id="LnT8cTqgNfaUhyzzywaj-19" value="&lt;font style=&quot;font-size: 14px&quot;&gt;&lt;b&gt;DIRECTOR&lt;/b&gt;&lt;/font&gt;" style="rounded=0;whiteSpace=wrap;html=1;" vertex="1" parent="1">
          <mxGeometry x="10" y="512" width="90" height="36" as="geometry" />
        </mxCell>
        <mxCell id="LnT8cTqgNfaUhyzzywaj-23" value="" style="edgeStyle=orthogonalEdgeStyle;rounded=0;orthogonalLoop=1;jettySize=auto;html=1;" edge="1" parent="1" source="LnT8cTqgNfaUhyzzywaj-21" target="LnT8cTqgNfaUhyzzywaj-22">
          <mxGeometry relative="1" as="geometry" />
        </mxCell>
        <mxCell id="LnT8cTqgNfaUhyzzywaj-21" value="Start" style="ellipse;whiteSpace=wrap;html=1;fillColor=#FFB570;" vertex="1" parent="1">
          <mxGeometry x="114" y="131" width="60" height="40" as="geometry" />
        </mxCell>
        <mxCell id="LnT8cTqgNfaUhyzzywaj-26" value="" style="edgeStyle=orthogonalEdgeStyle;rounded=0;orthogonalLoop=1;jettySize=auto;html=1;" edge="1" parent="1" source="LnT8cTqgNfaUhyzzywaj-22" target="LnT8cTqgNfaUhyzzywaj-25">
          <mxGeometry relative="1" as="geometry" />
        </mxCell>
        <mxCell id="LnT8cTqgNfaUhyzzywaj-22" value="Login into iOSMS Portal" style="rounded=0;whiteSpace=wrap;html=1;fillColor=#E6E6E6;" vertex="1" parent="1">
          <mxGeometry x="200" y="131" width="110" height="40" as="geometry" />
        </mxCell>
        <mxCell id="LnT8cTqgNfaUhyzzywaj-28" value="" style="edgeStyle=orthogonalEdgeStyle;rounded=0;orthogonalLoop=1;jettySize=auto;html=1;" edge="1" parent="1" source="LnT8cTqgNfaUhyzzywaj-25" target="LnT8cTqgNfaUhyzzywaj-27">
          <mxGeometry relative="1" as="geometry" />
        </mxCell>
        <mxCell id="LnT8cTqgNfaUhyzzywaj-25" value="Requisition Submission" style="whiteSpace=wrap;html=1;rounded=0;fillColor=#E6E6E6;" vertex="1" parent="1">
          <mxGeometry x="344" y="131" width="115" height="39" as="geometry" />
        </mxCell>
        <mxCell id="LnT8cTqgNfaUhyzzywaj-40" value="" style="edgeStyle=orthogonalEdgeStyle;rounded=0;orthogonalLoop=1;jettySize=auto;html=1;" edge="1" parent="1" source="LnT8cTqgNfaUhyzzywaj-27" target="LnT8cTqgNfaUhyzzywaj-38">
          <mxGeometry relative="1" as="geometry" />
        </mxCell>
        <mxCell id="LnT8cTqgNfaUhyzzywaj-42" style="edgeStyle=orthogonalEdgeStyle;rounded=0;orthogonalLoop=1;jettySize=auto;html=1;entryX=0.5;entryY=0;entryDx=0;entryDy=0;exitX=0.5;exitY=0;exitDx=0;exitDy=0;" edge="1" parent="1" source="LnT8cTqgNfaUhyzzywaj-27" target="LnT8cTqgNfaUhyzzywaj-25">
          <mxGeometry relative="1" as="geometry">
            <Array as="points">
              <mxPoint x="560" y="100" />
              <mxPoint x="402" y="100" />
            </Array>
          </mxGeometry>
        </mxCell>
        <mxCell id="LnT8cTqgNfaUhyzzywaj-27" value="Requisition Submited" style="rhombus;whiteSpace=wrap;html=1;rounded=0;fillColor=#E6E6E6;" vertex="1" parent="1">
          <mxGeometry x="510" y="110.5" width="100" height="80" as="geometry" />
        </mxCell>
        <mxCell id="LnT8cTqgNfaUhyzzywaj-35" value="yes" style="text;html=1;align=center;verticalAlign=middle;resizable=0;points=[];autosize=1;" vertex="1" parent="1">
          <mxGeometry x="530" y="200" width="30" height="20" as="geometry" />
        </mxCell>
        <mxCell id="LnT8cTqgNfaUhyzzywaj-57" style="edgeStyle=orthogonalEdgeStyle;rounded=0;orthogonalLoop=1;jettySize=auto;html=1;entryX=0.5;entryY=0;entryDx=0;entryDy=0;" edge="1" parent="1" source="LnT8cTqgNfaUhyzzywaj-38" target="LnT8cTqgNfaUhyzzywaj-45">
          <mxGeometry relative="1" as="geometry" />
        </mxCell>
        <mxCell id="LnT8cTqgNfaUhyzzywaj-38" value="Requisition Verify?" style="rhombus;whiteSpace=wrap;html=1;rounded=0;fillColor=#E6E6E6;" vertex="1" parent="1">
          <mxGeometry x="510" y="262" width="100" height="80" as="geometry" />
        </mxCell>
        <mxCell id="LnT8cTqgNfaUhyzzywaj-43" value="No" style="text;html=1;align=center;verticalAlign=middle;resizable=0;points=[];autosize=1;" vertex="1" parent="1">
          <mxGeometry x="465" y="100" width="30" height="20" as="geometry" />
        </mxCell>
        <mxCell id="LnT8cTqgNfaUhyzzywaj-44" value="incorrect" style="text;html=1;align=center;verticalAlign=middle;resizable=0;points=[];autosize=1;" vertex="1" parent="1">
          <mxGeometry x="450" y="280" width="60" height="20" as="geometry" />
        </mxCell>
        <mxCell id="LnT8cTqgNfaUhyzzywaj-48" style="edgeStyle=orthogonalEdgeStyle;rounded=0;orthogonalLoop=1;jettySize=auto;html=1;entryX=1;entryY=0.5;entryDx=0;entryDy=0;exitX=1;exitY=0.5;exitDx=0;exitDy=0;" edge="1" parent="1" source="LnT8cTqgNfaUhyzzywaj-45" target="LnT8cTqgNfaUhyzzywaj-38">
          <mxGeometry relative="1" as="geometry">
            <Array as="points">
              <mxPoint x="650" y="421" />
              <mxPoint x="650" y="302" />
            </Array>
          </mxGeometry>
        </mxCell>
        <mxCell id="LnT8cTqgNfaUhyzzywaj-50" value="" style="edgeStyle=orthogonalEdgeStyle;rounded=0;orthogonalLoop=1;jettySize=auto;html=1;" edge="1" parent="1" source="LnT8cTqgNfaUhyzzywaj-45" target="LnT8cTqgNfaUhyzzywaj-49">
          <mxGeometry relative="1" as="geometry" />
        </mxCell>
        <mxCell id="LnT8cTqgNfaUhyzzywaj-56" value="" style="edgeStyle=orthogonalEdgeStyle;rounded=0;orthogonalLoop=1;jettySize=auto;html=1;" edge="1" parent="1" source="LnT8cTqgNfaUhyzzywaj-45" target="LnT8cTqgNfaUhyzzywaj-55">
          <mxGeometry relative="1" as="geometry" />
        </mxCell>
        <mxCell id="LnT8cTqgNfaUhyzzywaj-45" value="Requisition Verify?" style="rhombus;whiteSpace=wrap;html=1;rounded=0;fillColor=#E6E6E6;" vertex="1" parent="1">
          <mxGeometry x="510" y="381" width="100" height="80" as="geometry" />
        </mxCell>
        <mxCell id="LnT8cTqgNfaUhyzzywaj-47" value="correct" style="text;html=1;align=center;verticalAlign=middle;resizable=0;points=[];autosize=1;" vertex="1" parent="1">
          <mxGeometry x="510" y="340" width="50" height="20" as="geometry" />
        </mxCell>
        <mxCell id="LnT8cTqgNfaUhyzzywaj-49" value="Temporary Block/Unblock" style="whiteSpace=wrap;html=1;rounded=0;fillColor=#E6E6E6;" vertex="1" parent="1">
          <mxGeometry x="174" y="401" width="120" height="40" as="geometry" />
        </mxCell>
        <mxCell id="LnT8cTqgNfaUhyzzywaj-51" value="If Individual Employes/Vtc&#39;s Requisition&amp;nbsp; Not ok" style="text;html=1;align=center;verticalAlign=middle;resizable=0;points=[];autosize=1;" vertex="1" parent="1">
          <mxGeometry x="266.5" y="381" width="270" height="20" as="geometry" />
        </mxCell>
        <mxCell id="LnT8cTqgNfaUhyzzywaj-52" value="Not ok" style="text;html=1;align=center;verticalAlign=middle;resizable=0;points=[];autosize=1;" vertex="1" parent="1">
          <mxGeometry x="650" y="330" width="50" height="20" as="geometry" />
        </mxCell>
        <mxCell id="LnT8cTqgNfaUhyzzywaj-58" style="edgeStyle=orthogonalEdgeStyle;rounded=0;orthogonalLoop=1;jettySize=auto;html=1;entryX=1;entryY=0.5;entryDx=0;entryDy=0;exitX=1;exitY=0.5;exitDx=0;exitDy=0;" edge="1" parent="1" source="LnT8cTqgNfaUhyzzywaj-55" target="LnT8cTqgNfaUhyzzywaj-45">
          <mxGeometry relative="1" as="geometry">
            <Array as="points">
              <mxPoint x="620" y="530" />
              <mxPoint x="620" y="421" />
            </Array>
          </mxGeometry>
        </mxCell>
        <mxCell id="LnT8cTqgNfaUhyzzywaj-62" value="" style="edgeStyle=orthogonalEdgeStyle;rounded=0;orthogonalLoop=1;jettySize=auto;html=1;" edge="1" parent="1" source="LnT8cTqgNfaUhyzzywaj-55" target="LnT8cTqgNfaUhyzzywaj-61">
          <mxGeometry relative="1" as="geometry" />
        </mxCell>
        <mxCell id="LnT8cTqgNfaUhyzzywaj-55" value="Requisition Locked?" style="rhombus;whiteSpace=wrap;html=1;rounded=0;fillColor=#E6E6E6;" vertex="1" parent="1">
          <mxGeometry x="510" y="490" width="100" height="80" as="geometry" />
        </mxCell>
        <mxCell id="LnT8cTqgNfaUhyzzywaj-59" value="Not ok" style="text;html=1;align=center;verticalAlign=middle;resizable=0;points=[];autosize=1;" vertex="1" parent="1">
          <mxGeometry x="620" y="500" width="50" height="20" as="geometry" />
        </mxCell>
        <mxCell id="LnT8cTqgNfaUhyzzywaj-61" value="Temporary Block/Unblock" style="whiteSpace=wrap;html=1;rounded=0;fillColor=#E6E6E6;" vertex="1" parent="1">
          <mxGeometry x="220" y="500" width="120" height="60" as="geometry" />
        </mxCell>
        <mxCell id="LnT8cTqgNfaUhyzzywaj-63" value="If Individual Employes/Vtc&#39;s Requisition&amp;nbsp; Not ok" style="text;html=1;align=center;verticalAlign=middle;resizable=0;points=[];autosize=1;" vertex="1" parent="1">
          <mxGeometry x="280" y="480" width="270" height="20" as="geometry" />
        </mxCell>
        <mxCell id="LnT8cTqgNfaUhyzzywaj-64" value="&lt;font style=&quot;font-size: 14px&quot;&gt;&lt;b&gt;DDO&lt;/b&gt;&lt;/font&gt;" style="rounded=0;whiteSpace=wrap;html=1;" vertex="1" parent="1">
          <mxGeometry x="10" y="610" width="90" height="36" as="geometry" />
        </mxCell>
        <mxCell id="LnT8cTqgNfaUhyzzywaj-66" value="Requisition verify &amp;amp; Forword" style="whiteSpace=wrap;html=1;rounded=0;fillColor=#E6E6E6;" vertex="1" parent="1">
          <mxGeometry x="280" y="278" width="115" height="39" as="geometry" />
        </mxCell>
      </root>
    </mxGraphModel>
  </diagram>
</mxfile>
